<svg width="23" height="23" viewBox="0 0 23 23" fill="none" xmlns="http://www.w3.org/2000/svg">
<g clip-path="url(#clip0_9_21)">
<path d="M16.7342 1.23612C13.4894 1.24771 10.8819 3.9208 10.8819 7.16559V9.88889H2.22917C1.20551 9.88889 0.375 10.7194 0.375 11.7431V19.1597C0.375 20.1834 1.20551 21.0139 2.22917 21.0139H15.8264C16.85 21.0139 17.6806 20.1834 17.6806 19.1597V11.7431C17.6806 10.7194 16.85 9.88889 15.8264 9.88889H13.9722V7.14241C13.9722 5.61272 15.1967 4.34185 16.7264 4.3264C18.2716 4.31095 19.5347 5.56637 19.5347 7.10764V10.1979C19.5347 10.7117 19.948 11.125 20.4618 11.125H21.6979C22.2117 11.125 22.625 10.7117 22.625 10.1979V7.10764C22.625 3.86286 19.979 1.22453 16.7342 1.23612Z" fill="black"/>
</g>
<defs>
<clipPath id="clip0_9_21">
<rect width="22.25" height="22.25" fill="white" transform="translate(0.375)"/>
</clipPath>
</defs>
</svg>
