<svg width="23" height="23" viewBox="0 0 23 23" fill="none" xmlns="http://www.w3.org/2000/svg">
<g clip-path="url(#clip0_9_19)">
<path d="M11.5 12.5156C14.9548 12.5156 17.7578 9.71264 17.7578 6.25781C17.7578 2.80298 14.9548 0 11.5 0C8.04517 0 5.24219 2.80298 5.24219 6.25781C5.24219 9.71264 8.04517 12.5156 11.5 12.5156ZM17.0625 13.9062H14.668C13.7033 14.3495 12.6299 14.6015 11.5 14.6015C10.3701 14.6015 9.30107 14.3495 8.33198 13.9062H5.9375C2.86509 13.9062 0.375 16.3963 0.375 19.4687V20.164C0.375 21.3157 1.30933 22.25 2.46094 22.25H20.5391C21.6907 22.25 22.625 21.3157 22.625 20.164V19.4687C22.625 16.3963 20.1349 13.9062 17.0625 13.9062Z" fill="black"/>
</g>
<defs>
<clipPath id="clip0_9_19">
<rect width="22.25" height="22.25" fill="white" transform="translate(0.375)"/>
</clipPath>
</defs>
</svg>
